<svg width="1120" height="1188" viewBox="0 0 1120 1188" fill="none" xmlns="http://www.w3.org/2000/svg">
<path d="M0.939844 719.2H0.509844L0.0898438 719.15V645.14C0.349844 645.04 0.619844 645.02 0.889844 645.07C2.95984 646.81 2.67984 649.25 2.68984 651.53C2.75984 671.92 2.74984 692.32 2.68984 712.71C2.68984 714.99 2.93984 717.42 0.939844 719.2Z" fill="#D1E5E9"/>
<path d="M0.940625 719.2C0.920625 694.49 0.910625 669.78 0.890625 645.08C4.48062 641.43 3.25063 636.54 3.67063 632.31C7.03063 597.87 14.0106 564.24 24.6906 531.31C38.5206 488.65 58.3006 448.92 82.7906 411.45C98.0406 388.13 115.331 366.46 134.251 345.96C160.251 317.78 189.441 293.49 220.981 271.87C241.371 257.89 262.621 245.4 285.261 235.43C292.061 232.44 298.891 229.4 306.161 227.58C306.951 229.79 305.051 230.46 303.861 231.46C286.461 246.05 267.391 258.3 248.461 270.72C220.031 289.37 194.511 311.28 171.661 336.53C155.851 354 141.411 372.46 128.101 391.81C109.461 418.9 92.8906 447.14 81.2206 478.08C75.7506 492.56 69.5506 506.77 64.2206 521.31C58.9906 535.57 55.0206 550.18 51.7706 565C46.9406 586.99 43.7006 609.23 41.6406 631.61C38.7206 663.31 40.2406 694.76 47.5606 725.89C50.6006 738.85 52.8906 752 56.4006 764.87C58.0506 770.91 61.2506 776.57 60.9906 783.09C64.1406 794.99 69.6606 805.99 74.4906 817.21C82.7406 836.4 92.5106 854.84 103.991 872.34C115.641 890.1 128.461 906.95 142.541 922.86C162.191 945.06 183.961 965 207.691 982.7C234.191 1002.46 262.321 1019.53 292.481 1033.29C312.891 1042.6 333.831 1050.44 355.391 1056.36C378.251 1062.64 401.551 1066.83 425.201 1069.29C449.911 1071.86 474.671 1072.57 499.441 1072.68C519.241 1072.77 539.051 1071.68 558.851 1071C566.061 1070.75 568.051 1068.36 568.061 1060.41C568.101 995.08 568.161 929.76 568.131 864.43C568.091 778.77 568.011 693.12 567.871 607.46C567.851 595.81 566.771 584.13 567.271 572.51C568.731 538.56 568.231 504.61 567.761 470.67C567.241 433.35 567.471 396.03 566.751 358.73C566.561 349.05 567.281 339.48 567.901 329.87C568.031 327.88 568.051 325.86 567.841 323.88C567.581 321.47 566.581 319.21 564.081 318.49C561.811 317.83 559.901 319.1 558.321 320.71C547.011 332.25 535.811 343.89 524.381 355.31C509.611 370.05 494.671 384.61 479.791 399.25C458.731 419.97 437.781 440.8 416.561 461.36C393.351 483.86 369.921 506.14 346.491 528.4C343.561 531.18 340.561 534.08 335.971 536.41C335.971 532.82 335.971 529.9 335.971 526.99C335.941 459.16 335.941 391.34 335.861 323.51C335.841 303.85 335.681 284.2 335.381 264.54C335.281 257.95 337.471 252.78 342.221 248.16C372.101 219.14 401.841 189.97 431.631 160.86C462.111 131.09 492.591 101.31 523.121 71.5798C536.741 58.3198 550.451 45.1598 564.121 31.9598C565.231 31.4398 566.411 31.6098 567.571 31.6198C644.351 32.3898 721.121 29.7998 797.911 30.4998C804.741 30.5598 811.581 30.3898 818.411 30.5598C824.281 30.6998 825.431 31.8898 825.701 37.6198C825.811 39.9498 825.751 42.2898 825.751 44.6198C825.751 210.93 825.751 377.25 825.751 543.56C825.751 591.88 824.921 640.22 825.941 688.52C827.471 761.17 826.131 833.81 826.741 906.45C826.771 909.78 826.781 913.11 826.431 916.44C826.281 917.84 825.501 919.63 827.271 920.48C828.801 921.21 830.171 920.12 831.331 919.2C837.101 914.65 842.171 909.32 847.311 904.11C864.171 887.03 882.041 870.99 898.781 853.8C900.631 851.9 902.431 849.87 905.191 849.22C917.821 838.25 929.311 826.1 941.211 814.38C959.031 796.83 976.221 778.62 995.771 761.79C996.291 765.84 996.371 768.67 994.591 772.29C991.951 777.67 991.051 783.94 989.601 789.87C984.821 809.34 978.671 828.35 971.711 847.17C964.391 866.95 956.001 886.21 946.321 904.92C930.911 934.72 912.651 962.7 891.961 989.11C873.221 1013.02 852.561 1035.19 830.161 1055.63C803.661 1079.8 774.881 1100.9 743.721 1118.9C710.971 1137.81 676.571 1152.68 640.451 1163.55C607.371 1173.51 573.571 1180 539.171 1183.57C519.281 1185.63 499.391 1186.75 479.411 1186.24C457.951 1185.69 436.731 1182.82 415.661 1178.99C384.821 1173.39 354.621 1165.29 325.191 1154.42C289.621 1141.29 255.931 1124.51 224.321 1103.46C206.111 1091.33 188.621 1078.25 172.431 1063.65C153.731 1046.78 136.181 1028.71 120.071 1009.22C92.2506 975.58 68.3406 939.49 49.4906 900.14C31.4406 862.45 18.4506 823.06 10.7706 781.9C7.60063 764.91 5.91063 747.78 4.09063 730.64C3.66063 726.61 2.49062 722.87 0.930625 719.2H0.940625Z" fill="#57A6B7"/>
<path d="M905.189 849.21C890.249 865.28 873.859 879.87 858.349 895.35C850.149 903.53 841.859 911.63 833.589 919.74C832.769 920.55 831.809 921.26 830.819 921.84C829.089 922.85 827.119 924.05 825.219 922.87C823.349 921.7 824.409 919.55 824.509 917.8C824.629 915.65 824.969 913.5 824.969 911.35C824.989 841.53 825.549 771.71 824.789 701.91C824.299 656.6 824.379 611.3 824.339 566C824.199 390.41 824.289 214.81 824.269 39.2198C824.269 31.0198 824.989 32.0498 817.039 32.0498C734.729 32.0698 652.419 32.1098 570.109 32.1298C568.109 32.1298 566.119 32.0198 564.119 31.9598C565.879 30.5098 567.969 31.1698 569.899 31.1698C606.059 31.1298 642.229 31.0698 678.389 31.2298C682.849 31.2498 684.609 30.2498 684.299 25.4798C683.879 19.0098 684.429 12.4798 684.109 5.98976C683.909 1.94976 685.319 0.939762 689.219 0.959762C720.049 1.09976 750.879 1.03976 781.709 1.03976C822.209 1.03976 862.699 1.05976 903.199 0.989762C906.519 0.989762 908.789 1.78976 911.369 4.33976C930.969 23.7698 950.629 43.1598 970.799 61.9898C986.019 76.2098 1000.21 91.4598 1015.42 105.66C1033.57 122.61 1050.56 140.72 1068.62 157.73C1078.68 167.21 1088.32 177.09 1098.3 186.64C1101.74 189.93 1103.29 193.77 1103.28 198.63C1103.18 274.96 1103.21 351.28 1103.16 427.61C1103.16 429.17 1104.04 431.4 1102.47 432.16C1100.84 432.95 1099.69 430.87 1098.41 429.88C1087.23 421.15 1077.69 410.67 1067.45 400.93C1033.05 368.22 999.249 334.9 965.749 301.27C954.589 290.06 943.369 278.9 932.199 267.71C925.669 261.17 918.429 255.37 912.479 248.22C909.719 244.9 906.529 245.77 904.819 249.87C903.749 252.45 903.849 255.25 904.359 257.75C905.659 264.21 905.169 270.69 905.179 277.15C905.219 305.31 905.409 333.48 905.049 361.64C903.049 521.92 904.739 682.21 904.229 842.5C904.229 844.72 903.329 847.19 905.199 849.18L905.189 849.21Z" fill="#C9D6D9"/>
<path d="M60.9697 783.11C52.7797 761.33 48.9297 738.47 44.0897 715.85C39.0897 692.46 38.1497 668.76 39.2897 645.03C39.9597 631.03 41.8597 617.07 43.7497 603.13C46.4497 583.25 50.3097 563.63 55.3697 544.26C58.3397 532.88 62.3097 521.75 66.7397 510.81C74.8997 490.68 82.2997 470.25 91.7297 450.63C99.0797 435.35 107.74 420.87 116.77 406.55C129 387.16 142.42 368.62 157.03 351.02C171.24 333.89 186.73 317.84 203.42 303.05C220.58 287.85 239.57 275.14 258.69 262.56C275.09 251.76 291.56 240.92 306.15 227.6C308.19 226.75 310.72 225.89 311.81 228.21C312.85 230.42 312.18 232.89 310.07 234.95C293.42 251.2 278.73 269.12 265.55 288.28C254.84 303.85 245.61 320.24 237.46 337.31C226.03 361.25 217.32 386.13 210.96 411.83C205.08 435.6 200.55 459.62 198.99 484.15C198.35 494.25 197.16 504.33 197.4 514.44C197.94 536.65 199.98 558.71 204.45 580.52C206.74 591.68 207.89 603.07 210.73 614.13C211.43 616.87 209.6 618.53 207.87 620.02C201.35 625.64 194.83 631.28 188.13 636.68C177.81 645 167.95 653.86 158.39 663.03C145.91 675 133.24 686.83 121.62 699.61C101.47 721.77 81.4197 744.12 66.6097 770.45C64.3597 774.45 61.8497 778.45 60.9697 783.11Z" fill="#6DCEA5"/>
</svg>
